{
  "accessors": [
    {
      "bufferView": 2,
      "componentType": 5126,
      "count": 7766,
      "max": [
        3.1553609371185303,
        2.0569183826446533,
        1.0736889839172363
      ],
      "min": [
        -3.1553604602813721,
        -1.4401283264160156,
        -1.0754326581954956
      ],
      "type": "VEC3"
    },
    {
      "bufferView": 2,
      "byteOffset": 93192,
      "componentType": 5126,
      "count": 7766,
      "max": [
        0.99987626075744629,
        0.99998033046722412,
        0.9999997615814209
      ],
      "min": [
        -0.99987626075744629,
        -1,
        -0.99997401237487793
      ],
      "type": "VEC3"
    },
    {
      "bufferView": 1,
      "componentType": 5126,
      "count": 7766,
      "max": [
        0.75000059604644775,
        0.82552093267440796
      ],
      "min": [
        0.37462314963340759,
        0.375
      ],
      "type": "VEC2"
    },
    {
      "bufferView": 0,
      "componentType": 5125,
      "count": 24540,
      "max": [
        7765
      ],
      "min": [
        0
      ],
      "type": "SCALAR"
    },
    {
      "bufferView": 2,
      "byteOffset": 186384,
      "componentType": 5126,
      "count": 2502,
      "max": [
        3.3828935623168945,
        2.2172842025756836,
        0.88433778285980225
      ],
      "min": [
        -3.3828938007354736,
        -0.031127100810408592,
        -0.63179683685302734
      ],
      "type": "VEC3"
    },
    {
      "bufferView": 2,
      "byteOffset": 216408,
      "componentType": 5126,
      "count": 2502,
      "max": [
        0.99998652935028076,
        0.99999904632568359,
        0.99999082088470459
      ],
      "min": [
        -0.99998652935028076,
        -0.99545800685882568,
        -0.99973702430725098
      ],
      "type": "VEC3"
    },
    {
      "bufferView": 1,
      "byteOffset": 62128,
      "componentType": 5126,
      "count": 2502,
      "max": [
        0.75000059604644775,
        0.8750002384185791
      ],
      "min": [
        0.35648167133331299,
        0.3125
      ],
      "type": "VEC2"
    },
    {
      "bufferView": 0,
      "byteOffset": 98160,
      "componentType": 5125,
      "count": 10266,
      "max": [
        2501
      ],
      "min": [
        0
      ],
      "type": "SCALAR"
    },
    {
      "bufferView": 2,
      "byteOffset": 246432,
      "componentType": 5126,
      "count": 9364,
      "max": [
        4.2002053260803223,
        3.9081897735595703,
        1.5096408128738403
      ],
      "min": [
        -4.2002053260803223,
        1.3858376741409302,
        -0.68612563610076904
      ],
      "type": "VEC3"
    },
    {
      "bufferView": 2,
      "byteOffset": 358800,
      "componentType": 5126,
      "count": 9364,
      "max": [
        0.99886596202850342,
        0.99916970729827881,
        0.99887973070144653
      ],
      "min": [
        -0.99886596202850342,
        -0.9999924898147583,
        -0.99849724769592285
      ],
      "type": "VEC3"
    },
    {
      "bufferView": 1,
      "byteOffset": 82144,
      "componentType": 5126,
      "count": 9364,
      "max": [
        0.87999522686004639,
        1.0000001192092896
      ],
      "min": [
        0.10693493485450745,
        -0.028658347204327583
      ],
      "type": "VEC2"
    },
    {
      "bufferView": 0,
      "byteOffset": 139224,
      "componentType": 5125,
      "count": 30216,
      "max": [
        9363
      ],
      "min": [
        0
      ],
      "type": "SCALAR"
    },
    {
      "bufferView": 2,
      "byteOffset": 471168,
      "componentType": 5126,
      "count": 6632,
      "max": [
        3.3483672142028809,
        1.3571450710296631,
        0.26636654138565063
      ],
      "min": [
        -3.34836745262146,
        1.1788151264190674,
        -0.24776801466941833
      ],
      "type": "VEC3"
    },
    {
      "bufferView": 2,
      "byteOffset": 550752,
      "componentType": 5126,
      "count": 6632,
      "max": [
        0.99744927883148193,
        0.99921882152557373,
        0.99519222974777222
      ],
      "min": [
        -0.99744832515716553,
        -0.99533164501190186,
        -0.99837446212768555
      ],
      "type": "VEC3"
    },
    {
      "bufferView": 1,
      "byteOffset": 157056,
      "componentType": 5126,
      "count": 6632,
      "max": [
        1.0000001192092896,
        1.0000004768371582
      ],
      "min": [
        0,
        0.010000001639127731
      ],
      "type": "VEC2"
    },
    {
      "bufferView": 0,
      "byteOffset": 260088,
      "componentType": 5125,
      "count": 21504,
      "max": [
        6631
      ],
      "min": [
        0
      ],
      "type": "SCALAR"
    },
    {
      "bufferView": 2,
      "byteOffset": 630336,
      "componentType": 5126,
      "count": 640,
      "max": [
        3.2809047698974609,
        1.310732364654541,
        0.22756162285804749
      ],
      "min": [
        -3.28090500831604,
        1.2547315359115601,
        0.17855995893478394
      ],
      "type": "VEC3"
    },
    {
      "bufferView": 2,
      "byteOffset": 638016,
      "componentType": 5126,
      "count": 640,
      "max": [
        0.99060404300689697,
        0.7320399284362793,
        0.99995851516723633
      ],
      "min": [
        -0.99059730768203735,
        -0.98385030031204224,
        -0.7599329948425293
      ],
      "type": "VEC3"
    },
    {
      "bufferView": 1,
      "byteOffset": 210112,
      "componentType": 5126,
      "count": 640,
      "max": [
        0.47173115611076355,
        0.47173112630844116
      ],
      "min": [
        0.028269035741686821,
        0.028268966823816299
      ],
      "type": "VEC2"
    },
    {
      "bufferView": 0,
      "byteOffset": 346104,
      "componentType": 5125,
      "count": 1872,
      "max": [
        639
      ],
      "min": [
        0
      ],
      "type": "SCALAR"
    },
    {
      "bufferView": 2,
      "byteOffset": 645696,
      "componentType": 5126,
      "count": 517,
      "max": [
        2.9008252620697021,
        2.5194103717803955,
        1.2369846105575562
      ],
      "min": [
        -2.9008255004882812,
        1.2700228691101074,
        -0.29907673597335815
      ],
      "type": "VEC3"
    },
    {
      "bufferView": 2,
      "byteOffset": 651900,
      "componentType": 5126,
      "count": 517,
      "max": [
        0.96128255128860474,
        0.9997859001159668,
        0.97486668825149536
      ],
      "min": [
        -0.96128255128860474,
        -0.99947762489318848,
        -0.97464656829833984
      ],
      "type": "VEC3"
    },
    {
      "bufferView": 1,
      "byteOffset": 215232,
      "componentType": 5126,
      "count": 517,
      "max": [
        0.62500011920928955,
        0.93078666925430298
      ],
      "min": [
        0.47182399034500122,
        0.49999988079071045
      ],
      "type": "VEC2"
    },
    {
      "bufferView": 0,
      "byteOffset": 353592,
      "componentType": 5125,
      "count": 1320,
      "max": [
        516
      ],
      "min": [
        0
      ],
      "type": "SCALAR"
    },
    {
      "bufferView": 2,
      "byteOffset": 658104,
      "componentType": 5126,
      "count": 116,
      "max": [
        0.29671004414558411,
        1.7987467050552368,
        0.98475944995880127
      ],
      "min": [
        -0.29671004414558411,
        0.056759953498840332,
        0.47735273838043213
      ],
      "type": "VEC3"
    },
    {
      "bufferView": 2,
      "byteOffset": 659496,
      "componentType": 5126,
      "count": 116,
      "max": [
        0.98049211502075195,
        0.90414333343505859,
        0.99961352348327637
      ],
      "min": [
        -0.98049211502075195,
        -0.81270325183868408,
        -0.99974155426025391
      ],
      "type": "VEC3"
    },
    {
      "bufferView": 1,
      "byteOffset": 219368,
      "componentType": 5126,
      "count": 116,
      "max": [
        0.75,
        0.875
      ],
      "min": [
        0.25,
        0.375
      ],
      "type": "VEC2"
    },
    {
      "bufferView": 0,
      "byteOffset": 358872,
      "componentType": 5125,
      "count": 432,
      "max": [
        115
      ],
      "min": [
        0
      ],
      "type": "SCALAR"
    },
    {
      "bufferView": 2,
      "byteOffset": 660888,
      "componentType": 5126,
      "count": 846,
      "max": [
        0.94708454608917236,
        3.2347540855407715,
        1.3986504077911377
      ],
      "min": [
        -0.94708460569381714,
        2.5835967063903809,
        1.231181263923645
      ],
      "type": "VEC3"
    },
    {
      "bufferView": 2,
      "byteOffset": 671040,
      "componentType": 5126,
      "count": 846,
      "max": [
        0.25968694686889648,
        0.25199517607688904,
        1
      ],
      "min": [
        -0.25968694686889648,
        -0.20566685497760773,
        0.94754791259765625
      ],
      "type": "VEC3"
    },
    {
      "bufferView": 1,
      "byteOffset": 220296,
      "componentType": 5126,
      "count": 846,
      "max": [
        0.87500011920928955,
        1.0000001192092896
      ],
      "min": [
        0.49999997019767761,
        0
      ],
      "type": "VEC2"
    },
    {
      "bufferView": 0,
      "byteOffset": 360600,
      "componentType": 5125,
      "count": 2688,
      "max": [
        845
      ],
      "min": [
        0
      ],
      "type": "SCALAR"
    },
    {
      "bufferView": 2,
      "byteOffset": 681192,
      "componentType": 5126,
      "count": 4029,
      "max": [
        1.2236558198928833,
        3.2912154197692871,
        1.4027460813522339
      ],
      "min": [
        -1.2236558198928833,
        2.5204741954803467,
        -0.37954005599021912
      ],
      "type": "VEC3"
    },
    {
      "bufferView": 2,
      "byteOffset": 729540,
      "componentType": 5126,
      "count": 4029,
      "max": [
        0.99945545196533203,
        1,
        0.99998927116394043
      ],
      "min": [
        -0.99945545196533203,
        -1,
        -0.99946296215057373
      ],
      "type": "VEC3"
    },
    {
      "bufferView": 1,
      "byteOffset": 227064,
      "componentType": 5126,
      "count": 4029,
      "max": [
        0.87500029802322388,
        1.0000001192092896
      ],
      "min": [
        0.49999988079071045,
        0
      ],
      "type": "VEC2"
    },
    {
      "bufferView": 0,
      "byteOffset": 371352,
      "componentType": 5125,
      "count": 12480,
      "max": [
        4028
      ],
      "min": [
        0
      ],
      "type": "SCALAR"
    },
    {
      "bufferView": 2,
      "byteOffset": 777888,
      "componentType": 5126,
      "count": 2332,
      "max": [
        1.4836885929107666,
        4.1051135063171387,
        1.5169353485107422
      ],
      "min": [
        -1.4836887121200562,
        2.1326971054077148,
        -1.0800915956497192
      ],
      "type": "VEC3"
    },
    {
      "bufferView": 2,
      "byteOffset": 805872,
      "componentType": 5126,
      "count": 2332,
      "max": [
        0.99962377548217773,
        0.99966347217559814,
        0.99994897842407227
      ],
      "min": [
        -0.99962377548217773,
        -0.97501349449157715,
        -0.99857670068740845
      ],
      "type": "VEC3"
    },
    {
      "bufferView": 1,
      "byteOffset": 259296,
      "componentType": 5126,
      "count": 2332,
      "max": [
        0.87500011920928955,
        1.0000001192092896
      ],
      "min": [
        0.12500001490116119,
        -0.024082951247692108
      ],
      "type": "VEC2"
    },
    {
      "bufferView": 0,
      "byteOffset": 421272,
      "componentType": 5125,
      "count": 7776,
      "max": [
        2331
      ],
      "min": [
        0
      ],
      "type": "SCALAR"
    },
    {
      "bufferView": 2,
      "byteOffset": 833856,
      "componentType": 5126,
      "count": 6751,
      "max": [
        1.225074291229248,
        4.7966775894165039,
        1.4490200281143188
      ],
      "min": [
        -1.363394021987915,
        2.1600635051727295,
        -1.97530198097229
      ],
      "type": "VEC3"
    },
    {
      "bufferView": 2,
      "byteOffset": 914868,
      "componentType": 5126,
      "count": 6751,
      "max": [
        0.9999624490737915,
        0.99988174438476562,
        0.99787986278533936
      ],
      "min": [
        -0.99996745586395264,
        -0.99998033046722412,
        -0.99963390827178955
      ],
      "type": "VEC3"
    },
    {
      "bufferView": 1,
      "byteOffset": 277952,
      "componentType": 5126,
      "count": 6751,
      "max": [
        1.0002121925354004,
        1.00994873046875
      ],
      "min": [
        -0.00014513191126752645,
        -0.12877938151359558
      ],
      "type": "VEC2"
    },
    {
      "bufferView": 0,
      "byteOffset": 452376,
      "componentType": 5125,
      "count": 37380,
      "max": [
        6750
      ],
      "min": [
        0
      ],
      "type": "SCALAR"
    }
  ],
  "asset": {
    "extras": {
      "author": "wintrez (https://sketchfab.com/wintrez)",
      "license": "CC-BY-4.0 (http://creativecommons.org/licenses/by/4.0/)",
      "source": "https://sketchfab.com/3d-models/wsb-3d-print-81b9fafca1cd49fd887202e8744d4346",
      "title": "WSB 3d Print"
    },
    "generator": "Sketchfab-10.11.2",
    "version": "2.0"
  },
  "bufferViews": [
    {
      "buffer": 0,
      "byteLength": 601896,
      "byteOffset": 0,
      "name": "floatBufferViews",
      "target": 34963
    },
    {
      "buffer": 0,
      "byteLength": 331960,
      "byteOffset": 601896,
      "byteStride": 8,
      "name": "floatBufferViews",
      "target": 34962
    },
    {
      "buffer": 0,
      "byteLength": 995880,
      "byteOffset": 933856,
      "byteStride": 12,
      "name": "floatBufferViews",
      "target": 34962
    }
  ],
  "buffers": [
    {
      "byteLength": 1929736,
      "uri": "scene.bin"
    }
  ],
  "materials": [
    {
      "doubleSided": true,
      "emissiveFactor": [
        0,
        0,
        0
      ],
      "name": "Suit",
      "pbrMetallicRoughness": {
        "baseColorFactor": [
          0,
          0.017128000000000001,
          0.029099400000000001,
          1
        ],
        "metallicFactor": 0,
        "roughnessFactor": 0.97499999999999998
      }
    },
    {
      "doubleSided": true,
      "emissiveFactor": [
        0,
        0,
        0
      ],
      "name": "Inner_shirt",
      "pbrMetallicRoughness": {
        "baseColorFactor": [
          0.80000000000000004,
          0.80000000000000004,
          0.80000000000000004,
          1
        ],
        "metallicFactor": 0,
        "roughnessFactor": 0.5
      }
    },
    {
      "doubleSided": true,
      "emissiveFactor": [
        0,
        0,
        0
      ],
      "name": "Skin",
      "pbrMetallicRoughness": {
        "baseColorFactor": [
          1,
          0.51056299999999999,
          0.31725300000000001,
          1
        ],
        "metallicFactor": 0,
        "roughnessFactor": 0.49166700000000002
      }
    },
    {
      "doubleSided": true,
      "emissiveFactor": [
        0,
        0,
        0
      ],
      "name": "Button",
      "pbrMetallicRoughness": {
        "baseColorFactor": [
          0.80000000000000004,
          0.30678699999999998,
          0.032827799999999997,
          1
        ],
        "metallicFactor": 0,
        "roughnessFactor": 0.54000000000000004
      }
    },
    {
      "doubleSided": true,
      "emissiveFactor": [
        0,
        0,
        0
      ],
      "name": "Button_String",
      "pbrMetallicRoughness": {
        "baseColorFactor": [
          0.80000000000000004,
          0.80000000000000004,
          0.80000000000000004,
          1
        ],
        "metallicFactor": 0,
        "roughnessFactor": 0.5
      }
    },
    {
      "doubleSided": true,
      "emissiveFactor": [
        0,
        0,
        0
      ],
      "name": "Mouth_shadow",
      "pbrMetallicRoughness": {
        "baseColorFactor": [
          0,
          0,
          0,
          1
        ],
        "metallicFactor": 0,
        "roughnessFactor": 1
      }
    },
    {
      "doubleSided": true,
      "emissiveFactor": [
        0,
        0,
        0
      ],
      "name": "material",
      "pbrMetallicRoughness": {
        "baseColorFactor": [
          0.80000000000000004,
          0.0047865900000000003,
          0,
          1
        ],
        "metallicFactor": 0,
        "roughnessFactor": 0.5
      }
    },
    {
      "doubleSided": true,
      "emissiveFactor": [
        0,
        0,
        0
      ],
      "name": "Shades",
      "pbrMetallicRoughness": {
        "baseColorFactor": [
          0,
          0,
          0,
          1
        ],
        "metallicFactor": 0,
        "roughnessFactor": 0.058333299999999998
      }
    },
    {
      "doubleSided": true,
      "emissiveFactor": [
        0,
        0,
        0
      ],
      "name": "Shades_Frame",
      "pbrMetallicRoughness": {
        "baseColorFactor": [
          0,
          0,
          0,
          1
        ],
        "metallicFactor": 0,
        "roughnessFactor": 0.83333299999999999
      }
    },
    {
      "doubleSided": true,
      "emissiveFactor": [
        0,
        0,
        0
      ],
      "name": "Skin_dark",
      "pbrMetallicRoughness": {
        "baseColorFactor": [
          1,
          0.38709900000000003,
          0.15698500000000001,
          1
        ],
        "metallicFactor": 0,
        "roughnessFactor": 0.51666699999999999
      }
    },
    {
      "doubleSided": true,
      "emissiveFactor": [
        0,
        0,
        0
      ],
      "name": "Hair",
      "pbrMetallicRoughness": {
        "baseColorFactor": [
          0.80000000000000004,
          0.455432,
          0.089371500000000006,
          1
        ],
        "metallicFactor": 0,
        "roughnessFactor": 0.65833299999999995
      }
    }
  ],
  "meshes": [
    {
      "primitives": [
        {
          "attributes": {
            "NORMAL": 1,
            "POSITION": 0,
            "TEXCOORD_0": 2
          },
          "indices": 3,
          "material": 0,
          "mode": 4
        }
      ]
    },
    {
      "primitives": [
        {
          "attributes": {
            "NORMAL": 5,
            "POSITION": 4,
            "TEXCOORD_0": 6
          },
          "indices": 7,
          "material": 1,
          "mode": 4
        }
      ]
    },
    {
      "primitives": [
        {
          "attributes": {
            "NORMAL": 9,
            "POSITION": 8,
            "TEXCOORD_0": 10
          },
          "indices": 11,
          "material": 2,
          "mode": 4
        }
      ]
    },
    {
      "primitives": [
        {
          "attributes": {
            "NORMAL": 13,
            "POSITION": 12,
            "TEXCOORD_0": 14
          },
          "indices": 15,
          "material": 3,
          "mode": 4
        }
      ]
    },
    {
      "primitives": [
        {
          "attributes": {
            "NORMAL": 17,
            "POSITION": 16,
            "TEXCOORD_0": 18
          },
          "indices": 19,
          "material": 4,
          "mode": 4
        }
      ]
    },
    {
      "primitives": [
        {
          "attributes": {
            "NORMAL": 21,
            "POSITION": 20,
            "TEXCOORD_0": 22
          },
          "indices": 23,
          "material": 5,
          "mode": 4
        }
      ]
    },
    {
      "primitives": [
        {
          "attributes": {
            "NORMAL": 25,
            "POSITION": 24,
            "TEXCOORD_0": 26
          },
          "indices": 27,
          "material": 6,
          "mode": 4
        }
      ]
    },
    {
      "primitives": [
        {
          "attributes": {
            "NORMAL": 29,
            "POSITION": 28,
            "TEXCOORD_0": 30
          },
          "indices": 31,
          "material": 7,
          "mode": 4
        }
      ]
    },
    {
      "primitives": [
        {
          "attributes": {
            "NORMAL": 33,
            "POSITION": 32,
            "TEXCOORD_0": 34
          },
          "indices": 35,
          "material": 8,
          "mode": 4
        }
      ]
    },
    {
      "primitives": [
        {
          "attributes": {
            "NORMAL": 37,
            "POSITION": 36,
            "TEXCOORD_0": 38
          },
          "indices": 39,
          "material": 9,
          "mode": 4
        }
      ]
    },
    {
      "primitives": [
        {
          "attributes": {
            "NORMAL": 41,
            "POSITION": 40,
            "TEXCOORD_0": 42
          },
          "indices": 43,
          "material": 10,
          "mode": 4
        }
      ]
    }
  ],
  "nodes": [
    {
      "children": [
        1
      ],
      "name": "RootNode (gltf orientation matrix)",
      "rotation": [
        -0.70710678118654746,
        -0,
        -0,
        0.70710678118654757
      ]
    },
    {
      "children": [
        2
      ],
      "name": "RootNode (model correction matrix)"
    },
    {
      "children": [
        3
      ],
      "name": "root"
    },
    {
      "children": [
        4
      ],
      "matrix": [
        1,
        0,
        0,
        0,
        0,
        2.2204460492503131e-16,
        1,
        0,
        0,
        -1,
        2.2204460492503131e-16,
        0,
        0,
        0,
        0,
        1
      ],
      "name": "GLTF_SceneRootNode"
    },
    {
      "children": [
        5,
        6,
        7,
        8,
        9,
        10,
        11,
        12,
        13,
        14,
        15
      ],
      "matrix": [
        1,
        0,
        0,
        0,
        0,
        1,
        0,
        0,
        0,
        0,
        1,
        0,
        0,
        0,
        -0.14492109417915344,
        1
      ],
      "name": "Cube_8"
    },
    {
      "mesh": 0,
      "name": ""
    },
    {
      "mesh": 1,
      "name": ""
    },
    {
      "mesh": 2,
      "name": ""
    },
    {
      "mesh": 3,
      "name": ""
    },
    {
      "mesh": 4,
      "name": ""
    },
    {
      "mesh": 5,
      "name": ""
    },
    {
      "mesh": 6,
      "name": ""
    },
    {
      "mesh": 7,
      "name": ""
    },
    {
      "mesh": 8,
      "name": ""
    },
    {
      "mesh": 9,
      "name": ""
    },
    {
      "mesh": 10,
      "name": ""
    }
  ],
  "scene": 0,
  "scenes": [
    {
      "name": "OSG_Scene",
      "nodes": [
        0
      ]
    }
  ]
}

